<svg width="16" height="16" viewBox="0 0 16 16" fill="none" xmlns="http://www.w3.org/2000/svg">
<path d="M13.1887 8.05259C13.0794 7.66192 12.956 7.24859 12.8187 6.80392C12.412 5.68273 12.1373 4.518 12 3.33325C12 3.15644 12.0703 2.98687 12.1953 2.86185C12.3203 2.73682 12.4899 2.66659 12.6667 2.66659C12.8435 2.66659 13.0131 2.73682 13.1381 2.86185C13.2631 2.98687 13.3334 3.15644 13.3334 3.33325C13.3334 3.51006 13.4036 3.67963 13.5286 3.80466C13.6537 3.92968 13.8232 3.99992 14 3.99992C14.1768 3.99992 14.3464 3.92968 14.4714 3.80466C14.5965 3.67963 14.6667 3.51006 14.6667 3.33325C14.6667 2.80282 14.456 2.29411 14.0809 1.91904C13.7058 1.54397 13.1971 1.33325 12.6667 1.33325C12.1363 1.33325 11.6276 1.54397 11.2525 1.91904C10.8774 2.29411 10.6667 2.80282 10.6667 3.33325C10.6832 3.84232 10.7545 4.34812 10.8794 4.84192L7.67937 7.33325L3.9807 4.66659H6.00004C6.17685 4.66659 6.34642 4.59635 6.47144 4.47132C6.59646 4.3463 6.6667 4.17673 6.6667 3.99992C6.6667 3.82311 6.59646 3.65354 6.47144 3.52851C6.34642 3.40349 6.17685 3.33325 6.00004 3.33325H3.9807C3.70375 3.33317 3.43386 3.42069 3.20966 3.58328C2.98545 3.74588 2.81842 3.97522 2.73246 4.2385C2.6465 4.50178 2.64602 4.7855 2.73108 5.04907C2.81614 5.31264 2.98239 5.54256 3.20604 5.70592L6.5867 8.18059L5.62804 8.92659C5.03256 8.36594 4.25024 8.04618 3.43255 8.02923C2.61485 8.01227 1.81995 8.29932 1.20175 8.8348C0.583542 9.37028 0.186015 10.1161 0.0861317 10.9278C-0.0137514 11.7396 0.191115 12.5595 0.661065 13.2289C1.13102 13.8983 1.83262 14.3695 2.63003 14.5512C3.42745 14.733 4.26395 14.6125 4.97757 14.2129C5.6912 13.8133 6.23118 13.1632 6.49298 12.3883C6.75477 11.6135 6.71975 10.7691 6.3947 10.0186L11.254 6.23925C11.348 6.55659 11.7387 7.82859 11.8247 8.12125C11.0278 8.32931 10.3364 8.82532 9.88392 9.51346C9.43145 10.2016 9.25009 11.033 9.37489 11.8471C9.49968 12.6611 9.92177 13.4001 10.5596 13.9211C11.1974 14.4421 12.0057 14.7082 12.8283 14.668C13.6509 14.6278 14.4294 14.2841 15.0134 13.7034C15.5973 13.1227 15.9454 12.3461 15.9902 11.5238C16.035 10.7014 15.7734 9.89164 15.256 9.2509C14.7386 8.61016 14.002 8.18394 13.1887 8.05459V8.05259ZM3.33337 13.3333C2.93781 13.3333 2.55113 13.216 2.22223 12.9962C1.89333 12.7764 1.63698 12.4641 1.48561 12.0986C1.33423 11.7332 1.29463 11.331 1.3718 10.9431C1.44897 10.5551 1.63945 10.1987 1.91916 9.91904C2.19886 9.63933 2.55523 9.44885 2.94319 9.37168C3.33115 9.29451 3.73328 9.33412 4.09874 9.48549C4.46419 9.63687 4.77654 9.89321 4.99631 10.2221C5.21607 10.551 5.33337 10.9377 5.33337 11.3333C5.33337 11.8637 5.12265 12.3724 4.74758 12.7475C4.37251 13.1225 3.8638 13.3333 3.33337 13.3333ZM12.6667 13.3333C12.2711 13.3333 11.8845 13.216 11.5556 12.9962C11.2267 12.7764 10.9703 12.4641 10.8189 12.0986C10.6676 11.7332 10.628 11.331 10.7051 10.9431C10.7823 10.5551 10.9728 10.1987 11.2525 9.91904C11.5322 9.63933 11.8886 9.44885 12.2765 9.37168C12.6645 9.29451 13.0666 9.33412 13.4321 9.48549C13.7975 9.63687 14.1099 9.89321 14.3296 10.2221C14.5494 10.551 14.6667 10.9377 14.6667 11.3333C14.6667 11.8637 14.456 12.3724 14.0809 12.7475C13.7058 13.1225 13.1971 13.3333 12.6667 13.3333Z" fill="#3922C5"/>
</svg>
